<svg xmlns="http://www.w3.org/2000/svg" width="138.592" height="27.633" viewBox="0 0 138.592 27.633">
  <g id="Group_46" data-name="Group 46" transform="translate(-61.394 -57.049)">
    <g id="Group_43" data-name="Group 43" transform="translate(61.394 57.049)">
      <path id="Path_34" data-name="Path 34" d="M62,113.3a59.119,59.119,0,0,1,.063-17.449,29.481,29.481,0,0,1,9.2,7.877S65.142,108.778,62,113.3Z" transform="translate(-61.394 -85.664)" fill="#96999c"/>
      <path id="Path_35" data-name="Path 35" d="M72.452,63.027S79,68.535,81.091,71.76V89.036S72.523,77.573,63.955,71.642C63.955,71.642,68.145,67.154,72.452,63.027Z" transform="translate(-63.283 -61.458)" fill="#aeb0b3"/>
      <path id="Path_36" data-name="Path 36" d="M97.674,57.049a32.206,32.206,0,0,1,8.27,7.94V57.064Z" transform="translate(-88.151 -57.049)" fill="#aeb0b3"/>
      <path id="Path_37" data-name="Path 37" d="M168.748,113.3a59.109,59.109,0,0,0-.063-17.449,29.484,29.484,0,0,0-9.2,7.877S165.61,108.778,168.748,113.3Z" transform="translate(-133.742 -85.664)" fill="#fff"/>
      <path id="Path_38" data-name="Path 38" d="M137.878,63.027s-6.544,5.508-8.638,8.733V89.036s8.568-11.463,17.135-17.395C146.375,71.642,142.186,67.154,137.878,63.027Z" transform="translate(-111.432 -61.458)" fill="#fff"/>
      <path id="Path_39" data-name="Path 39" d="M137.569,57.049a32.206,32.206,0,0,0-8.27,7.94V57.064Z" transform="translate(-111.476 -57.049)" fill="#fff"/>
    </g>
    <g id="Group_45" data-name="Group 45" transform="translate(105.134 65.73)">
      <g id="Group_44" data-name="Group 44" transform="translate(0 0)">
        <path id="Path_40" data-name="Path 40" d="M241.162,102.488a1.629,1.629,0,0,1-1.822-1.863q0-.9-.082-2.682-.1-1.822-.225-3.112l-.123.307q-.328,1.065-.819,2.518-.368,1.167-.819,2.538a8.551,8.551,0,0,1-1.085,2.293h-.8q-1.474,0-2.17-2.068l-1.679-4.975q-.164-.491-.246-.676-.164,1.515-.266,3.993-.082,2.17-.082,3.726H229.82a1.785,1.785,0,0,1-1.29-.471,1.926,1.926,0,0,1-.491-1.392q0-1.965.328-5.343.307-3.276.655-5.159h.758a3.305,3.305,0,0,1,3.5,2.191l1.658,4.606q.368,1.065.389,1.167l.041-.082.02-.061q.123-.409.328-1.024l.348-1.065q.43-1.289.676-2.088a7.723,7.723,0,0,1,2.027-3.644h.368q2.293,0,2.641,2.682.164,1.556.348,4.586.2,3.317.2,5.1Z" transform="translate(-228.039 -90.122)" fill="#fff"/>
        <path id="Path_41" data-name="Path 41" d="M298.9,96.878a6.359,6.359,0,0,1-1.29,4.279,4.975,4.975,0,0,1-3.972,1.556,4.636,4.636,0,0,1-3.624-1.474,5.916,5.916,0,0,1-1.372-4.156V90.122h1.208a1.48,1.48,0,0,1,1.187.532,2.865,2.865,0,0,1,.553,1.924V96.94q0,2.969,2.293,2.969,2.047,0,2.047-2.887v-6.9h1.208q1.76,0,1.761,2.4Z" transform="translate(-272.737 -90.122)" fill="#fff"/>
        <path id="Path_42" data-name="Path 42" d="M339.133,91.146a1.534,1.534,0,0,1-.491,1.064,1.638,1.638,0,0,1-1.208.553h-1.884v9.725h-1.228q-1.72,0-1.72-1.884V92.763h-3.4V91.7a1.466,1.466,0,0,1,.43-1.044,1.673,1.673,0,0,1,1.29-.532h8.21Z" transform="translate(-302.651 -90.122)" fill="#fff"/>
        <path id="Path_43" data-name="Path 43" d="M370.84,102.488a2,2,0,0,1-1.331-.43,1.406,1.406,0,0,1-.532-.962l-.061-.368a3.21,3.21,0,0,1-.061-.389l-.02-.164-.02-.143a5.081,5.081,0,0,0-.1-.553h-4.238q-.368,1.6-.594,3.01h-1.167q-1.372,0-1.372-1.433a19.211,19.211,0,0,1,1.392-5.323,18,18,0,0,1,2.784-5.609H366.6a2.372,2.372,0,0,1,2.17,1.249,28.819,28.819,0,0,1,1.9,4.811,39.32,39.32,0,0,1,1.474,6.306Zm-5.712-5.467h2.887a19.775,19.775,0,0,0-1.433-3.828A19.1,19.1,0,0,0,365.128,97.021Z" transform="translate(-326.352 -90.122)" fill="#fff"/>
        <path id="Path_44" data-name="Path 44" d="M414.549,100.973a1.435,1.435,0,0,1-.409,1.024,1.561,1.561,0,0,1-1.208.491h-5.9a1.757,1.757,0,0,1-1.269-.471,1.69,1.69,0,0,1-.512-1.31q0-1.269,1.863-3.317.511-.614,1.454-1.658l.737-.839.717-.819a6.675,6.675,0,0,0,1.024-1.311h-5.794v-.921q0-1.72,2.047-1.719h5.364a1.629,1.629,0,0,1,1.863,1.822,4.989,4.989,0,0,1-1.495,2.928q-.594.675-1.454,1.617l-.716.839-.369.41-.348.389a10.883,10.883,0,0,0-1.351,1.7h5.753Z" transform="translate(-358.739 -90.122)" fill="#fff"/>
        <path id="Path_45" data-name="Path 45" d="M449.332,126.692a1.732,1.732,0,0,1-1.269.533,1.819,1.819,0,0,1-1.781-1.781,1.782,1.782,0,0,1,1.781-1.781,1.749,1.749,0,0,1,1.781,1.781A1.743,1.743,0,0,1,449.332,126.692Z" transform="translate(-388.998 -114.859)" fill="#fff"/>
        <path id="Path_46" data-name="Path 46" d="M478.024,102.488a2.689,2.689,0,0,1-1.638-.512,8.329,8.329,0,0,1-2.006-2.743q-2.314-4.5-2.375-4.627v7.882h-1.228a1.628,1.628,0,0,1-1.167-.471,1.779,1.779,0,0,1-.553-1.371V90.122h1.454a3.964,3.964,0,0,1,3.6,2.559q.2.43.512,1.044l.287.553.266.553q.7,1.413,1.147,2.293v-7h1.331a1.488,1.488,0,0,1,1.065.491,1.565,1.565,0,0,1,.512,1.167v10.708Z" transform="translate(-405.796 -90.122)" fill="#fff"/>
        <path id="Path_47" data-name="Path 47" d="M526.3,100.829a1.445,1.445,0,0,1-.573,1.29,4.374,4.374,0,0,1-2.313.45h-1.249q-4.668,0-4.668-4.893v-2.17a22.383,22.383,0,0,1,.225-3.358q.307-2.027,2.109-2.027h6.449v1.085q0,1.535-1.884,1.535h-3.788q-.061.471-.1,1.105-.021.491-.041,1.065h4.545v1.126q0,1.372-1.72,1.372h-2.825v.409a2.3,2.3,0,0,0,.491,1.74,2.631,2.631,0,0,0,1.72.409h.737a13.088,13.088,0,0,0,2.887-.348Z" transform="translate(-441.52 -90.122)" fill="#fff"/>
        <path id="Path_48" data-name="Path 48" d="M561.51,91.146a1.534,1.534,0,0,1-.491,1.064,1.638,1.638,0,0,1-1.208.553h-1.884v9.725H556.7q-1.72,0-1.72-1.884V92.763h-3.4V91.7a1.466,1.466,0,0,1,.43-1.044,1.673,1.673,0,0,1,1.29-.532h8.21Z" transform="translate(-466.658 -90.122)" fill="#fff"/>
      </g>
    </g>
  </g>
</svg>
