<svg id="Group_55" data-name="Group 55" xmlns="http://www.w3.org/2000/svg" width="28.234" height="28.234" viewBox="0 0 28.234 28.234">
  <rect id="Rectangle_7" data-name="Rectangle 7" width="28.234" height="28.234" rx="9" fill="#e6f2f6"/>
  <path id="Path_19" data-name="Path 19" d="M353.627,982.669a1.6,1.6,0,0,0-1.553-.872,1.674,1.674,0,0,0-1.38,1.268,1.49,1.49,0,0,0,.514,1.659.3.3,0,0,1,.125.274c0,.344,0,.464,0,.55,0,.116,0,.169-.007.636a.451.451,0,0,1-.1.275c-.664.677-1.349,1.225-2.011,1.881l-.3.3-.016.015v-2.11c0-2.214,0-2.7,0-6.021a.508.508,0,0,1,.193-.447,1.534,1.534,0,0,0,.308-1.973,1.588,1.588,0,0,0-1.891-.682,1.568,1.568,0,0,0-.509,2.673.379.379,0,0,1,.151.338c0,.2,0,.3-.006.364,0,.106,0,.108,0,.24,0,.066,0,.164.006.325a.467.467,0,0,1-.157.378c-.614.607-1.236,1.226-1.838,1.824s-1.221,1.215-1.834,1.82a1.065,1.065,0,0,0-.34.814c.005.511,0,.707,0,.934,0,.188,0,.4,0,.818a.385.385,0,0,1-.153.342,1.493,1.493,0,0,0-.494,1.6,1.522,1.522,0,0,0,1.447,1.159,1.565,1.565,0,0,0,1.072-2.788.367.367,0,0,1-.154-.336l0-.361c0-.269,0-.269,0-.63l0-.223a.5.5,0,0,1,.164-.4c.527-.516,1.057-1.044,1.57-1.556l.669-.666.036-.035c0,.007,0,.015,0,.022V985.9c0,2.39,0,2.353,0,6.024a.3.3,0,0,1-.124.275,1.622,1.622,0,0,0-.554,1.547,1.524,1.524,0,0,0,1.317,1.224,1.892,1.892,0,0,0,.218.013,1.577,1.577,0,0,0,1.475-.927,1.543,1.543,0,0,0-.441-1.86.349.349,0,0,1-.144-.317c0-.082,0-.144,0-.191,0-.006,0-.011,0-.017h0v0c0-.022,0-.043,0-.062s0-.037,0-.058v0h0c0-.006,0-.012,0-.019,0-.047,0-.108,0-.19a.474.474,0,0,1,.157-.381c.626-.618,1.26-1.249,1.873-1.859s1.21-1.2,1.817-1.8a1.117,1.117,0,0,0,.357-.859c-.006-.4,0-.519,0-.624s0-.219-.006-.663a.783.783,0,0,1,.266-.69A1.512,1.512,0,0,0,353.627,982.669Zm-5.6,9.75a.97.97,0,0,1,.977,1,.985.985,0,0,1-.982.979h0a1.016,1.016,0,0,1-.711-.3.961.961,0,0,1,0-1.389,1,1,0,0,1,.7-.291Zm4.424-6.382a1.278,1.278,0,0,1-.454,1.1c-.726.695-1.448,1.417-2.146,2.114-.421.421-.857.856-1.288,1.281a.98.98,0,0,0-.323.765c0,.11,0,.182,0,.227,0,.013,0,.029,0,.047v.006h0v.008c0,.017,0,.035,0,.054,0,.113-.018.135-.02.137s-.025.02-.135.013l-.044,0a1.02,1.02,0,0,1-.26-.033,1.783,1.783,0,0,1-.019-.439v-7.8c0,.109,0,.087,0,.065a.641.641,0,0,0-.013-.214.455.455,0,0,0-.206-.32.245.245,0,0,0-.1-.018.474.474,0,0,0-.3.126c-1.128,1.111-2.049,2.028-2.9,2.887a.68.68,0,0,0-.161.442c-.007.5-.007.542-.007.732,0,.1,0,.23,0,.482,0,.062,0,.13,0,.167-.036,0-.1,0-.162-.008a.85.85,0,0,0-.086,0,1.376,1.376,0,0,1-.254-.006,1.349,1.349,0,0,1-.012-.252c0-.277,0-.418,0-.522,0-.185,0-.248,0-.741a.711.711,0,0,1,.236-.557c.635-.626,1.278-1.266,1.9-1.884.592-.589,1.2-1.2,1.807-1.793a.812.812,0,0,0,.262-.636c-.006-.349-.006-.372-.005-.421s0-.108,0-.4a.369.369,0,0,1,.011-.115.253.253,0,0,1,.069.013.193.193,0,0,0,.053.008,1.039,1.039,0,0,1,.322.048,1.011,1.011,0,0,1,.023.32v1.53c0,2.587,0,2.773,0,6.5,0,.026,0,.052,0,.078a.948.948,0,0,0,.024.3.522.522,0,0,0,.249.323c.138.06.325-.057.394-.123.263-.25.524-.511.776-.763l.243-.243.505-.5c.417-.416.849-.847,1.277-1.266a.8.8,0,0,0,.259-.617c0-.35,0-.417,0-.472s0-.107,0-.495c0-.147,0-.164.188-.177a1.26,1.26,0,0,1,.131,0h.029c.129,0,.132.014.131.13.005.31.011.394.014.444s0,.062-.005.467v.011Zm.751-2.646a1,1,0,0,1-.309.7.968.968,0,0,1-.7.279.9.9,0,0,1-.987-.88,1.324,1.324,0,0,1,.314-.834.986.986,0,0,1,.674-.281h.023A1,1,0,0,1,353.2,983.39Zm-5.174-3.487a1.016,1.016,0,0,1-.716-.294.967.967,0,0,1-.3-.686,1.017,1.017,0,0,1,1-1h.011a.993.993,0,0,1,.007,1.985Zm-4.173,8.587a1.013,1.013,0,0,1,1,1,.963.963,0,0,1-.29.688.994.994,0,0,1-.721.289.98.98,0,0,1-.7-.293.991.991,0,0,1-.285-.713,1.006,1.006,0,0,1,.994-.976Z" transform="translate(-333.851 -972.118)" fill="#146485"/>
</svg>
