<svg id="Group_13" data-name="Group 13" xmlns="http://www.w3.org/2000/svg" width="28.234" height="28.234" viewBox="0 0 28.234 28.234">
  <rect id="Rectangle_9" data-name="Rectangle 9" width="28.234" height="28.234" rx="9" transform="translate(0 0)" fill="#e6f2f6"/>
  <g id="Group_8" data-name="Group 8" transform="translate(8.079 8.249)">
    <g id="Group_7" data-name="Group 7" transform="translate(0 0)">
      <path id="Path_20" data-name="Path 20" d="M264.915,641.862q0,2.734,0,5.469a.592.592,0,0,1-.254.564.91.91,0,0,1-.433.121c-.993.01-1.987.005-2.98.005q-3.986,0-7.971,0a.608.608,0,0,1-.543-.209.768.768,0,0,1-.154-.406q-.012-5.555-.005-11.111a.6.6,0,0,1,.611-.617h.1q5.454,0,10.908-.005a.672.672,0,0,1,.724.72C264.907,638.216,264.915,640.039,264.915,641.862ZM253.814,640v6.171a.609.609,0,0,0,.609.609h8.645a.609.609,0,0,0,.609-.609V640a.609.609,0,0,0-.609-.609h-8.645A.609.609,0,0,0,253.814,640Zm.6-1.862h8.648a.609.609,0,0,0,.609-.609h0a.609.609,0,0,0-.609-.609h-8.648a.609.609,0,0,0-.609.609h0A.609.609,0,0,0,254.419,638.139Z" transform="translate(-252.574 -635.674)" fill="#1c6d8f"/>
      <path id="Path_21" data-name="Path 21" d="M320.181,779.8c1.022,0,2.043,0,3.065,0a.614.614,0,0,1,.072,1.225c-.038,0-.077,0-.116,0h-6.044a.624.624,0,0,1-.679-.55.616.616,0,0,1,.65-.679C318.147,779.794,319.164,779.8,320.181,779.8Z" transform="translate(-314.01 -774.234)" fill="#1c6d8f"/>
      <path id="Path_22" data-name="Path 22" d="M318.68,843.743c.5,0,.993,0,1.489,0a.619.619,0,1,1,0,1.236q-1.5,0-2.993,0a.62.62,0,1,1,0-1.236C317.678,843.742,318.179,843.743,318.68,843.743Z" transform="translate(-314.043 -835.715)" fill="#1c6d8f"/>
    </g>
  </g>
</svg>
