<svg id="Group_47" data-name="Group 47" xmlns="http://www.w3.org/2000/svg" width="28.234" height="28.234" viewBox="0 0 28.234 28.234">
  <rect id="Rectangle_7" data-name="Rectangle 7" width="28.234" height="28.234" rx="9" fill="#e6f2f6"/>
  <g id="Group_16" data-name="Group 16" transform="translate(8.123 8.102)">
    <path id="Path_28" data-name="Path 28" d="M160.216,876.72l0,0a.65.65,0,0,0-1.277.214,4.762,4.762,0,0,1-6.832,4.235,4.666,4.666,0,0,1-2.7-4.239.656.656,0,0,0-.65-.7h0a.634.634,0,0,0-.468.2.688.688,0,0,0-.173.521,9.039,9.039,0,0,0,.141,1.239,6.054,6.054,0,0,0,4.861,4.661c.153.025.309.045.46.065l.212.028h.767l.212-.028c.151-.02.307-.04.46-.065a6.052,6.052,0,0,0,4.863-4.659c.039-.187.064-.379.087-.565.011-.089.023-.181.036-.271,0-.018.007-.037.012-.056l.007-.03v-.53Z" transform="translate(-148.111 -870.817)" fill="#1c6d8f"/>
    <path id="Path_29" data-name="Path 29" d="M263.089,711.137a1.195,1.195,0,0,0,1.757,0c.416-.413.863-.86,1.408-1.409a.844.844,0,0,0,.153-.2.644.644,0,0,0-.19-.812.631.631,0,0,0-.823.043c-.183.175-.364.358-.539.535l-.24.241v-5.8c0-.036,0-.073,0-.11a.649.649,0,0,0-.639-.61.634.634,0,0,0-.458.181.694.694,0,0,0-.2.5q0,2.175,0,4.35v1.495l-.15-.15q-.3-.3-.591-.591a.656.656,0,0,0-.433-.2.648.648,0,0,0-.63.371.631.631,0,0,0,.133.739C262.1,710.148,262.567,710.619,263.089,711.137Z" transform="translate(-257.907 -703.007)" fill="#1c6d8f"/>
  </g>
</svg>
