<svg id="Group_56" data-name="Group 56" xmlns="http://www.w3.org/2000/svg" width="28.234" height="28.234" viewBox="0 0 28.234 28.234">
  <rect id="Rectangle_8" data-name="Rectangle 8" width="28.234" height="28.234" rx="9" fill="#e6f2f6"/>
  <g id="Group_11" data-name="Group 11" transform="translate(7.948 8.204)">
    <g id="Group_5" data-name="Group 5" transform="translate(0)">
      <path id="Path_16" data-name="Path 16" d="M320.471,971.184c-.016.037-.031.074-.048.111a.486.486,0,0,1-.925-.185c0-.045,0-.089,0-.134q0-2.971,0-5.942a.98.98,0,0,0-1.063-1.059h-8.4a.98.98,0,0,0-1.057,1.054q0,4.207,0,8.414a.98.98,0,0,0,1.056,1.055c2.8,0,5.6-.006,8.4,0a1.013,1.013,0,0,0,1.068-1,.471.471,0,0,1,.4-.457.489.489,0,0,1,.533.294l.038.089v.317a.409.409,0,0,0-.022.067,1.952,1.952,0,0,1-1.45,1.6c-.085.022-.171.04-.257.059h-9.012a.514.514,0,0,0-.067-.022,1.927,1.927,0,0,1-1.6-1.439c-.026-.088-.042-.179-.063-.269v-9.012a.513.513,0,0,0,.022-.067,1.926,1.926,0,0,1,1.439-1.6c.088-.026.179-.042.269-.063h9.012a.426.426,0,0,0,.067.022,1.95,1.95,0,0,1,1.6,1.45c.022.085.04.171.059.257Z" transform="translate(-308 -963)" fill="#146485"/>
      <path id="Path_17" data-name="Path 17" d="M575.946,1052.158l.825-.827q.577-.577,1.154-1.154a.49.49,0,1,1,.686.693q-.929.931-1.861,1.859a.775.775,0,0,1-.108.077l.022.033c.034,0,.068.006.1.006h1.206a.489.489,0,1,1,0,.974q-.871,0-1.742,0a1.217,1.217,0,0,1-1.257-1.25c0-.585,0-1.169,0-1.754a.488.488,0,1,1,.974,0c0,.4,0,.8,0,1.193Z" transform="translate(-568.468 -1047.876)" fill="#146485"/>
      <path id="Path_18" data-name="Path 18" d="M399.84,1229.63c-.166.167-.3.309-.445.45l-1.55,1.55a.48.48,0,0,1-.5.145.464.464,0,0,1-.343-.36.491.491,0,0,1,.16-.484q.936-.933,1.869-1.868c.031-.031.068-.057.129-.107-.074-.006-.107-.01-.141-.01h-1.206a.489.489,0,1,1,0-.974c.585,0,1.169,0,1.754,0a1.216,1.216,0,0,1,1.247,1.247c0,.589,0,1.177,0,1.766a.488.488,0,1,1-.974,0C399.839,1230.544,399.84,1230.106,399.84,1229.63Z" transform="translate(-394.822 -1221.516)" fill="#146485"/>
    </g>
  </g>
</svg>
